#!OML:ASF F:\VICON\USERDATA\INSTALL\rory3\rory3.ASF
:FULLY-SPECIFIED
:DEGREES
3333
root 0.440361 16.1387 -1.52421 8.76405 -41.7272 1.45019
lowerback 24.7906 -3.20341 -15.6488
upperback 6.67266 -9.2962 -11.215
thorax -5.76169 -4.5105 -1.02548
lowerneck 6.53422 -19.518 -22.6776
upperneck -5.45132 -27.9234 24.9787
head 4.18633 -14.4659 9.01374
rclavicle -1.27222e-014 3.81667e-014
rhumerus -15.4137 -40.2391 8.56601
rradius 83.6364
rwrist -7.7127
rhand 22.564 8.39795
rfingers 7.12502
rthumb 46.9157 -14.3053
lclavicle -1.27222e-014 3.81667e-014
lhumerus 22.4866 -8.19067 53.7989
lradius 102.093
lwrist 17.8147
lhand 7.20075 30.7619
lfingers 7.12502
lthumb 32.4668 57.8731
rfemur -30.3373 25.4874 10.1978
rtibia 21.5426
rfoot -0.69605 8.27338
rtoes -1.48329
lfemur -10.3593 12.0928 -20.4644
ltibia 16.2716
lfoot -22.494 25.6004
ltoes 8.92341
3334
root 0.438726 16.144 -1.51367 9.02228 -41.6403 1.38292
lowerback 24.6177 -3.06601 -15.3374
upperback 6.91909 -8.92603 -10.9352
thorax -5.41673 -4.36632 -0.997608
lowerneck 5.68156 -19.4765 -22.5033
upperneck -5.41218 -27.6893 24.8987
head 4.24277 -14.2995 8.92384
rclavicle 2.06736e-014 3.49861e-014
rhumerus -15.6345 -40.1124 8.571
rradius 83.5542
rwrist -8.13578
rhand 21.716 8.23502
rfingers 7.12502
rthumb 46.1301 -14.8051
lclavicle 2.06736e-014 3.49861e-014
lhumerus 22.1323 -8.91007 54.0801
lradius 101.736
lwrist 17.725
lhand 7.23972 30.6607
lfingers 7.12502
lthumb 32.5038 57.7643
rfemur -30.509 25.4403 10.143
rtibia 21.4904
rfoot -0.704405 8.19263
rtoes -1.77645
lfemur -10.4441 11.9111 -20.4537
ltibia 16.0211
lfoot -22.4 25.7619
ltoes 8.65707
3335
root 0.435506 16.1495 -1.50249 9.19268 -41.4641 1.34405
lowerback 24.6987 -3.03384 -15.0987
upperback 6.89782 -8.82523 -10.7623
thorax -5.49649 -4.31062 -0.94729
lowerneck 5.58246 -19.0869 -22.0531
upperneck -5.58777 -27.0618 24.6672
head 3.96794 -13.9901 8.95188
rclavicle -5.88403e-014 -9.54166e-015
rhumerus -15.49 -39.5182 7.94451
rradius 83.5898
rwrist -8.5031
rhand 21.3368 8.14475
rfingers 7.12502
rthumb 45.7783 -15.0415
lclavicle -5.88403e-014 -9.54166e-015
lhumerus 21.1493 -9.78541 53.9264
lradius 101.394
lwrist 17.7166
lhand 7.13404 30.62
lfingers 7.12502
lthumb 32.4033 57.7442
rfemur -30.5733 25.4036 10.0858
rtibia 21.4512
rfoot -0.775539 8.00555
rtoes -1.72152
lfemur -10.4327 11.7314 -20.4431
ltibia 15.7323
lfoot -22.2772 25.806
ltoes 8.48622
3336
root 0.432109 16.1559 -1.48944 9.26063 -41.2795 1.44296
lowerback 24.7637 -3.029 -14.9124
upperback 6.8663 -8.77536 -10.6347
thorax -5.57575 -4.27913 -0.908424
lowerneck 5.51468 -18.6696 -21.9047
upperneck -5.71977 -26.4472 24.6986
head 3.7928 -13.6904 9.07835
rclavicle -1.145e-013 -3.49861e-014
rhumerus -15.2355 -38.959 7.23394
rradius 83.5893
rwrist -8.74453
rhand 21.1142 8.19418
rfingers 7.12502
rthumb 45.5716 -15.0766
lclavicle -1.145e-013 -3.49861e-014
lhumerus 20.0421 -10.5733 53.9394
lradius 101.032
lwrist 17.6452
lhand 7.31786 30.5192
lfingers 7.12502
lthumb 32.5782 57.6075
rfemur -30.6106 25.347 9.91843
rtibia 21.4097
rfoot -0.838618 7.82641
rtoes -1.70183
lfemur -10.4063 11.465 -20.5475
ltibia 15.4471
lfoot -22.2074 25.9739
ltoes 8.48137
3337
root 0.430454 16.1612 -1.47813 9.3526 -41.1007 1.55472
lowerback 24.7916 -2.98007 -14.6664
upperback 6.898 -8.63372 -10.4845
thorax -5.57583 -4.21205 -0.905683
lowerneck 5.28001 -18.3606 -22.1703
upperneck -5.74365 -26.017 25.1141
head 3.83581 -13.4743 9.29383
rclavicle -3.65764e-014 7.63333e-014
rhumerus -15.4471 -38.4883 6.93824
rradius 83.7518
rwrist -9.01506
rhand 20.8894 8.16155
rfingers 7.12502
rthumb 45.3627 -15.1937
lclavicle -3.65764e-014 7.63333e-014
lhumerus 19.1684 -11.4362 54.2097
lradius 100.718
lwrist 17.5706
lhand 7.36253 30.5101
lfingers 7.12502
lthumb 32.6207 57.5896
rfemur -30.7229 25.2663 9.73278
rtibia 21.4094
rfoot -0.915544 7.68559
rtoes -2.09059
lfemur -10.3813 11.1015 -20.6579
ltibia 15.078
lfoot -22.1909 26.1636
ltoes 8.92058
3338
root 0.426668 16.1647 -1.46801 9.42815 -40.9916 1.66008
lowerback 24.8506 -2.88306 -14.4795
upperback 6.89046 -8.46095 -10.3469
thorax -5.63165 -4.12513 -0.890984
lowerneck 4.99567 -18.0541 -22.2137
upperneck -5.71041 -25.5608 25.3202
head 3.83091 -13.238 9.42527
rclavicle 7.95139e-015 -6.99722e-014
rhumerus -15.9008 -37.9506 6.65627
rradius 84.2369
rwrist -9.40442
rhand 20.7915 7.86314
rfingers 7.12502
rthumb 45.2717 -15.5286
lclavicle 7.95139e-015 -6.99722e-014
lhumerus 18.2634 -12.2797 54.531
lradius 100.44
lwrist 17.2281
lhand 7.16994 30.3031
lfingers 7.12502
lthumb 32.4374 57.4204
rfemur -30.8255 25.2845 9.54131
rtibia 21.3859
rfoot -0.961157 7.49963
rtoes -2.09547
lfemur -10.3325 10.8256 -20.765
ltibia 14.724
lfoot -22.1222 26.3768
ltoes 8.83091
3339
root 0.420751 16.1692 -1.45786 9.43729 -40.8607 1.79564
lowerback 24.8998 -2.75128 -14.3459
upperback 6.9318 -8.24492 -10.195
thorax -5.61917 -4.02321 -0.848191
lowerneck 4.57069 -17.7742 -22.0446
upperneck -5.78531 -25.076 25.3341
head 3.75025 -12.9783 9.47086
rclavicle -6.36111e-014 2.8625e-014
rhumerus -15.9618 -37.5379 6.2031
rradius 84.4061
rwrist -9.73562
rhand 20.9118 7.47759
rfingers 7.12502
rthumb 45.3835 -15.8693
lclavicle -6.36111e-014 2.8625e-014
lhumerus 17.4407 -13.0712 54.9137
lradius 100.084
lwrist 16.5947
lhand 7.24059 29.9374
lfingers 7.12502
lthumb 32.5047 57.0408
rfemur -30.8427 25.3345 9.34827
rtibia 21.3488
rfoot -1.0207 7.31271
rtoes -2.3174
lfemur -10.2406 10.5304 -20.877
ltibia 14.4189
lfoot -22.0919 26.599
ltoes 8.40507
3340
root 0.41436 16.1737 -1.4464 9.601 -40.6438 1.67819
lowerback 24.9373 -2.65845 -13.9576
upperback 7.01037 -8.0013 -9.9914
thorax -5.58938 -3.91168 -0.891075
lowerneck 4.02383 -17.5379 -21.8095
upperneck -5.92168 -24.6142 25.2637
head 3.65509 -12.722 9.46647
rclavicle -4.6118e-014 1.90833e-014
rhumerus -15.7202 -37.2298 5.70478
rradius 84.1023
rwrist -9.86737
rhand 20.8967 7.30763
rfingers 7.12502
rthumb 45.3695 -16.0449
lclavicle -4.6118e-014 1.90833e-014
lhumerus 16.7396 -13.9244 55.3179
lradius 99.7143
lwrist 16.2579
lhand 7.46045 29.7013
lfingers 7.12502
lthumb 32.7139 56.7614
rfemur -30.8147 25.3533 9.39497
rtibia 21.3166
rfoot -1.13165 7.11243
rtoes -2.71891
lfemur -10.1322 10.193 -20.7675
ltibia 14.1018
lfoot -22.0059 26.7879
ltoes 8.23257
3341
root 0.409862 16.1786 -1.43532 9.75768 -40.3675 1.65182
lowerback 24.9601 -2.60679 -13.5998
upperback 7.05537 -7.82014 -9.79762
thorax -5.58223 -3.82655 -0.913292
lowerneck 3.32789 -17.3155 -21.2087
upperneck -5.95971 -24.1187 24.7557
head 3.49143 -12.4314 9.27529
rclavicle 3.02153e-014 5.725e-014
rhumerus -15.537 -36.9603 5.19133
rradius 83.7757
rwrist -9.95562
rhand 20.6534 7.28603
rfingers 7.12502
rthumb 45.1432 -16.1569
lclavicle 3.02153e-014 5.725e-014
lhumerus 15.9471 -14.7905 55.817
lradius 99.3835
lwrist 16.0009
lhand 7.68724 29.7344
lfingers 7.12502
lthumb 32.9296 56.7494
rfemur -30.8557 25.3111 9.33502
rtibia 21.2966
rfoot -1.22629 6.89042
rtoes -2.75291
lfemur -10.0958 9.87295 -20.7511
ltibia 13.7771
lfoot -21.8134 26.9295
ltoes 8.24909
3342
root 0.407513 16.1833 -1.42529 9.74753 -40.1018 1.80666
lowerback 25.0774 -2.54231 -13.3887
upperback 7.0636 -7.68765 -9.64128
thorax -5.64614 -3.75821 -0.879986
lowerneck 2.82947 -17.0179 -20.5362
upperneck -6.13047 -23.5436 24.2394
head 3.23706 -12.1189 9.11138
rclavicle 3.02153e-014 -4.13472e-014
rhumerus -15.4467 -36.6571 4.68032
rradius 83.5818
rwrist -10.2232
rhand 20.2539 7.34773
rfingers 7.12502
rthumb 44.7716 -16.2413
lclavicle 3.02153e-014 -4.13472e-014
lhumerus 15.0432 -15.5851 56.3997
lradius 99.0954
lwrist 15.6942
lhand 8.25161 29.8084
lfingers 7.12502
lthumb 33.4662 56.7091
rfemur -30.8584 25.2047 9.14514
rtibia 21.276
rfoot -1.30753 6.73023
rtoes -2.58603
lfemur -10.0458 9.55848 -20.8858
ltibia 13.5086
lfoot -21.663 27.0302
ltoes 7.91173
3343
root 0.406457 16.187 -1.41543 9.86645 -39.845 1.90374
lowerback 25.0637 -2.48022 -13.1083
upperback 7.0812 -7.51013 -9.45618
thorax -5.64095 -3.67342 -0.873302
lowerneck 2.35457 -16.7143 -20.3404
upperneck -6.29557 -23.0193 24.2796
head 3.13911 -11.8406 9.15831
rclavicle -1.27222e-014 -6.36111e-015
rhumerus -15.439 -36.4241 4.30395
rradius 83.4024
rwrist -10.6435
rhand 19.9554 7.44629
rfingers 7.12502
rthumb 44.4935 -16.25
lclavicle -1.27222e-014 -6.36111e-015
lhumerus 14.1975 -16.3588 57.0831
lradius 98.7698
lwrist 15.4796
lhand 8.79182 29.6771
lfingers 7.12502
lthumb 33.9795 56.4654
rfemur -31.0135 25.0406 8.96396
rtibia 21.3128
rfoot -1.37745 6.65202
rtoes -2.66367
lfemur -10.0772 9.17898 -20.9884
ltibia 13.1734
lfoot -21.6192 27.2189
ltoes 7.88244
3344
root 0.400974 16.191 -1.40601 10.1004 -39.4724 1.96478
lowerback 24.9625 -2.46432 -12.8151
upperback 7.07579 -7.36888 -9.23383
thorax -5.61088 -3.60577 -0.827841
lowerneck 1.76011 -16.4206 -20.121
upperneck -6.37744 -22.4955 24.2226
head 3.06825 -11.5509 9.15732
rclavicle 7.4743e-014 4.45278e-014
rhumerus -15.376 -36.1699 3.87939
rradius 83.1309
rwrist -10.8584
rhand 19.8948 7.72365
rfingers 7.12502
rthumb 44.4371 -15.9943
lclavicle 7.4743e-014 4.45278e-014
lhumerus 13.347 -17.0723 57.8559
lradius 98.3926
lwrist 15.2954
lhand 9.09507 29.5382
lfingers 7.12502
lthumb 34.2676 56.2622
rfemur -31.2371 24.897 8.77805
rtibia 21.3739
rfoot -1.48647 6.39681
rtoes -2.61313
lfemur -10.1864 8.77362 -21.0333
ltibia 12.7763
lfoot -21.4734 27.3639
ltoes 7.78619
3345
root 0.390704 16.1949 -1.39776 10.1742 -39.1249 2.06533
lowerback 25.0092 -2.3999 -12.6524
upperback 7.07524 -7.22695 -9.01587
thorax -5.63348 -3.53411 -0.709917
lowerneck 1.18732 -16.1107 -19.5641
upperneck -6.59939 -21.9129 23.7849
head 2.84903 -11.2334 9.01587
rclavicle 6.99722e-014 5.08889e-014
rhumerus -15.2353 -35.8675 3.32804
rradius 82.8789
rwrist -10.8981
rhand 19.9716 7.62835
rfingers 7.12502
rthumb 44.5086 -16.0622
lclavicle 6.99722e-014 5.08889e-014
lhumerus 12.4877 -17.7222 58.552
lradius 98.028
lwrist 15.2632
lhand 9.1967 29.7068
lfingers 7.12502
lthumb 34.364 56.409
rfemur -31.2819 24.9078 8.61364
rtibia 21.416
rfoot -1.65607 6.04023
rtoes -2.65601
lfemur -10.1371 8.52126 -21.0854
ltibia 12.3964
lfoot -21.1843 27.4339
ltoes 7.74438
3346
root 0.380818 16.1985 -1.38958 10.2264 -38.8516 2.16407
lowerback 25.0377 -2.2877 -12.5007
upperback 7.05322 -7.03252 -8.83965
thorax -5.67951 -3.43637 -0.647027
lowerneck 0.925486 -15.7709 -19.1792
upperneck -6.96034 -21.3447 23.6628
head 2.61219 -10.95 9.01883
rclavicle -9.22361e-014 5.725e-014
rhumerus -15.3028 -35.438 2.75885
rradius 82.7354
rwrist -10.8608
rhand 19.5872 7.44445
rfingers 7.12502
rthumb 44.1503 -16.3822
lclavicle -9.22361e-014 5.725e-014
lhumerus 11.5958 -18.4229 59.2037
lradius 97.6606
lwrist 15.1984
lhand 9.16235 29.5876
lfingers 7.12502
lthumb 34.3314 56.2972
rfemur -31.3112 24.8758 8.49751
rtibia 21.4316
rfoot -1.76744 5.79701
rtoes -3.26529
lfemur -10.0518 8.25478 -21.1308
ltibia 12.036
lfoot -20.9846 27.515
ltoes 7.82557
3347
root 0.371921 16.2019 -1.38096 10.3013 -38.482 2.21818
lowerback 25.1073 -2.21269 -12.2467
upperback 6.99132 -6.87159 -8.6584
thorax -5.80176 -3.34943 -0.620699
lowerneck 0.933118 -15.4311 -18.9309
upperneck -7.41814 -20.8135 23.6683
head 2.34639 -10.7024 9.09659
rclavicle 5.725e-014 9.22361e-014
rhumerus -15.4706 -34.8424 2.28937
rradius 82.5928
rwrist -10.8618
rhand 19.1309 7.3686
rfingers 7.12502
rthumb 43.7246 -16.6162
lclavicle 5.725e-014 9.22361e-014
lhumerus 10.6233 -19.1979 59.9225
lradius 97.296
lwrist 15.1036
lhand 8.80687 29.4355
lfingers 7.12502
lthumb 33.9938 56.2206
rfemur -31.3116 24.8111 8.41766
rtibia 21.4423
rfoot -1.87129 5.48871
rtoes -3.76909
lfemur -9.95088 7.93339 -21.1337
ltibia 11.6296
lfoot -20.7403 27.6104
ltoes 7.722
